<svg width="512" height="512" viewBox="0 0 512 512" fill="none" xmlns="http://www.w3.org/2000/svg">
<g clip-path="url(#clip0_138_46)">
<path fill-rule="evenodd" clip-rule="evenodd" d="M390.2 478.4C394.8 478.4 398.5 482.1 398.5 486.7C398.5 491.3 394.8 495 390.2 495C387.1 495 384.1 495 381.2 494.6C370.1 493.6 366.7 493.1 361.9 490.5C360 489.5 358 488.2 355.2 486.4C354.1 485.7 352.8 484.9 351.4 484C348.1 479.6 345.6 478 341.6 480.6C340.4 481.3 339 482.5 337.5 484C337 486.1 336.6 488.1 336.2 490.1C333.5 503 331.6 512 316.7 512H217.9C206.6 512 185.2 508.9 185.2 497.5C185.2 487.6 204.5 469.6 214 467.7C213.3 467.1 212.6 466.4 212 465.8C208.6 462.4 205.4 458.9 202.4 455.3C181.5 424.2 168.8 407.4 168.7 361.5C168.7 322.2 184.1 285.2 212 257.3C220.5 248.8 225.3 237.4 225.3 225.3C225.3 213.2 220.5 201.9 212 193.3C211.9 193.3 211.9 193.3 211.9 193.2C210.8 192.2 203.4 187.4 203.2 187.3C192.8 182 181.2 179.2 169.6 179.2C164.8 179.2 160 179.7 155.3 180.7C152.4 181.2 149.5 180.3 147.5 178.1C145.5 176 144.8 172.9 145.6 170.1C153.5 143.6 176.7 125.4 204.1 123.9C211.2 117.9 219.9 114.4 229.3 114C229.6 113.9 235.3 114.1 237.1 114.3C270.6 117.1 301.7 131.8 325.3 156.1C350.5 182.2 351.4 189.1 351.4 225.3V263.4L364.6 340.5L372.8 384.1L377.4 434.1C377.4 455.3 366.1 475.5 383.6 478C385.6 478.3 387.8 478.4 390.2 478.4ZM197.5 136.1C186.6 132.6 159.2 155.5 159.7 168.2C160.5 169.4 164.2 169.3 168.3 168.2C172.3 167.1 199.9 169 204.4 172C204.4 172 214.1 145 197.5 136.1ZM241.9 157.8C246.5 157.8 250.2 154 250.2 149.5C250.2 144.9 246.5 141.2 241.9 141.2C237.4 141.2 233.7 144.9 233.7 149.5C233.7 154 237.4 157.8 241.9 157.8ZM210.3 288.4C182.1 332 181.8 361.4 192 394.1C198 413.8 207.7 433.6 223.5 452.4C245.9 459.7 271.6 464.4 293.3 461.1C297.6 460.5 301.4 459.6 304.7 458.4C304.7 457.8 304.6 457.2 304.6 456.6C304.5 456.3 304.5 455.9 304.5 455.6C303.5 445.6 301.9 428.3 297.9 408.3C294.2 389.9 288.6 369.1 279.7 349.8C274.8 339.1 268.8 329.9 264 321.7C255.8 300.5 253.8 269.4 250.2 251.9C237.5 258.6 229.5 262.2 221 274C217.9 278.3 214.5 283.1 210.3 288.4Z" fill="#462929"/>
<path d="M504.9 218.7H458.9C456.9 208.1 454.1 197.7 450.7 187.7L490.7 164.6C494.1 162.7 495.3 158.3 493.3 155L462.6 101.8C460.7 98.5 456.3 97.3 453 99.2L413 122.3C406.1 114.2 398.5 106.6 390.5 99.6L413.6 59.5C415.6 56.1 414.4 51.8 411 49.8L357.9 19.2C354.5 17.2 350.2 18.4 348.2 21.8L325.2 61.7C315.2 58.1 304.9 55.3 294.3 53.4V7.1C294.3 3.2 291.1 0 287.2 0H225.9C222 0 218.8 3.2 218.8 7.1V53.2C208.2 55.1 197.9 57.9 187.8 61.4L164.7 21.3C162.8 18 158.4 16.8 155 18.8L101.9 49.4C98.5 51.4 97.4 55.7 99.3 59.1L122.4 99C114.2 106 106.6 113.5 99.7 121.6L59.6 98.5C56.2 96.5 51.8 97.7 49.9 101.1L19.2 154.2C17.3 157.6 18.5 161.9 21.8 163.9L61.7 186.9C58.1 196.8 55.3 207.2 53.3 217.8H7.1C3.2 217.8 0 221 0 224.9V286.2C0 290.1 3.2 293.3 7.1 293.3H53.1C55 303.9 57.8 314.3 61.3 324.3L21.3 347.4C17.9 349.3 16.7 353.7 18.7 357L49.4 410.2C51.3 413.5 55.7 414.7 59 412.7L98.9 389.8C105.9 397.9 113.4 405.5 121.5 412.5L98.5 452.4C96.5 455.8 97.7 460.2 101.1 462.1L154.2 492.8C157.6 494.7 161.9 493.5 163.9 490.2L185.3 462.1C167.9 435.5 157.7 417.7 149.7 370.2C135.2 355.7 118.5 336.3 110.6 317.5C102.4 298.1 98.2 277.4 98.2 256.1C98.2 234.7 102.4 214.1 110.6 194.6C118.5 175.8 129.9 159 144.4 144.5C158.9 130 175.9 118.6 194.6 110.6C214.1 102.4 234.7 98.2 256.1 98.2C277.4 98.2 298 102.4 317.5 110.6C336.3 118.6 353.2 130 367.7 144.5C382.2 159 393.6 175.9 401.5 194.6C409.7 214.1 413.9 234.7 413.9 256.1C413.9 277.4 409.7 298.1 401.5 317.5C394 336.8 389.5 344.8 381.2 357L390.2 420.4C398.3 413.5 405.6 398.6 412.5 390.5L452.5 413.6C455.9 415.5 460.2 414.3 462.2 411L492.8 357.9C494.8 354.5 493.6 350.1 490.2 348.2L450.4 325.2C454 315.2 456.8 304.8 458.7 294.2H504.9C508.8 294.2 512 291 512 287.2V225.8C512 221.9 508.8 218.7 504.9 218.7Z" fill="#462929"/>
<path d="M197.5 136.1C186.6 132.6 159.2 155.5 159.7 168.2C160.5 169.4 164.2 169.3 168.3 168.2C172.3 167.1 199.9 169 204.4 172C204.4 172 214.1 145 197.5 136.1Z" fill="#FFCC66"/>
</g>
<defs>
<clipPath id="clip0_138_46">
<rect width="512" height="512" fill="white"/>
</clipPath>
</defs>
</svg>
